<svg width="109" height="109" viewBox="0 0 109 109" fill="none" xmlns="http://www.w3.org/2000/svg">
<circle cx="54.2323" cy="54.2323" r="53.6324" stroke="#00D1FF" stroke-width="1.2"/>
<g clip-path="url(#clip0_1115_17827)">
<path d="M41.9282 78.1607C31.5573 81.3573 20.8582 84.7645 21.3217 70.4467C21.4182 67.4607 21.4375 64.3789 21.6693 61.2206C22.3259 52.1284 30.6883 25.4453 41.2136 25.4453C47.0846 25.4453 47.7606 29.1013 47.4709 32.6425C46.6597 42.4429 48.0309 39.8205 49.209 48.3767C49.827 52.7984 51.7389 56.6841 49.0352 69.8725C48.0502 74.7153 46.4859 76.7442 41.9282 78.1607Z" stroke="#00D1FF" stroke-width="1.2" stroke-linecap="round" stroke-linejoin="round"/>
<path d="M56.7794 53.7172C56.3159 57.0861 56.2 61.6991 57.8802 69.8916C58.8651 74.7344 60.4294 76.7634 64.9872 78.1799C75.358 81.3765 86.0572 84.7837 85.5937 70.4659C85.4971 67.4798 85.4778 64.3981 85.2461 61.2397C84.5894 52.1476 76.2271 25.4645 65.7018 25.4645C59.8307 25.4645 59.1548 29.1205 59.4445 32.6616C59.6762 35.5328 59.7342 37.3321 59.6569 38.672" stroke="#00D1FF" stroke-width="1.2" stroke-linecap="round" stroke-linejoin="round"/>
<path d="M59.657 38.653C59.599 43.3617 52.7624 47.9748 57.3394 54.5403C60.3715 58.8854 65.3735 63.2305 64.4272 67.4033C63.8285 70.0448 62.8049 71.3656 60.7385 73.2414" stroke="#00D1FF" stroke-width="1.2" stroke-linecap="round" stroke-linejoin="round"/>
<path d="M53.419 21.2916V34.6715L48.0115 38.4615" stroke="#00D1FF" stroke-width="1.2" stroke-linecap="round" stroke-linejoin="round"/>
<path d="M53.4192 34.748L59.2902 39.0549" stroke="#00D1FF" stroke-width="1.2" stroke-linecap="round" stroke-linejoin="round"/>
<path d="M27.3857 58.158C27.5208 60.053 28.892 61.5269 30.5143 61.5269C32.9863 61.5269 34.9175 59.5936 34.4734 56.933C34.0678 54.502 32.8318 52.875 30.5143 53.143C28.1968 53.4109 27.2505 56.2439 27.3857 58.1389V58.158Z" stroke="#00D1FF" stroke-width="1.2" stroke-linecap="round" stroke-linejoin="round"/>
<path d="M33.7975 67.7478C33.6623 68.9728 33.7975 70.3127 35.0335 71.5378C36.4626 72.9543 39.9389 72.0737 40.2092 68.4369C40.4024 65.7379 39.2629 64.2449 37.2158 64.3789C35.1687 64.5129 33.952 66.5419 33.8168 67.7478H33.7975Z" stroke="#00D1FF" stroke-width="1.2" stroke-linecap="round" stroke-linejoin="round"/>
<path d="M30.1282 36.5282C30.1282 36.5282 32.2526 38.1169 33.9521 36.5282C36.5399 34.0972 33.4113 30.5752 33.4113 30.5752" stroke="#00D1FF" stroke-width="1.2" stroke-linecap="round" stroke-linejoin="round"/>
<path d="M65.0258 43.8211C63.2491 44.223 62.1676 45.7161 62.438 48.013C62.6697 50.0229 64.4851 51.669 66.9378 51.669C69.3905 51.669 70.6265 49.774 70.2016 47.4771C69.854 45.4864 67.1695 43.3425 65.0258 43.8211Z" stroke="#00D1FF" stroke-width="1.2" stroke-linecap="round" stroke-linejoin="round"/>
<path d="M84.6475 64.0918C84.6475 64.0918 80.8236 64.4938 80.9588 67.7478C81.094 71.0018 85.0531 71.4038 85.0531 71.4038" stroke="#00D1FF" stroke-width="1.2" stroke-linecap="round" stroke-linejoin="round"/>
</g>
<defs>
<clipPath id="clip0_1115_17827">
<rect width="66.6283" height="61.9798" fill="white" transform="translate(20.1436 20.1432)"/>
</clipPath>
</defs>
</svg>
