<svg width="110" height="109" viewBox="0 0 110 109" fill="none" xmlns="http://www.w3.org/2000/svg">
<circle cx="54.9491" cy="54.2323" r="53.6324" stroke="#00D1FF" stroke-width="1.2"/>
<g clip-path="url(#clip0_1115_17840)">
<path d="M61.1518 37.9637C62.6587 36.225 63.4807 34.0612 63.1088 31.2406C62.9131 29.6758 62.463 27.4154 61.0735 25.696" stroke="#00D1FF" stroke-width="1.2" stroke-linecap="round" stroke-linejoin="round"/>
<path d="M52.521 38.524C54.2824 37.6933 56.2786 35.0272 56.8461 32.2453C57.355 29.7338 57.218 27.6087 56.3177 25.387" stroke="#00D1FF" stroke-width="1.2" stroke-linecap="round" stroke-linejoin="round"/>
<path d="M43.4988 37.2296C45.906 36.5921 47.9805 35.2784 49.3896 32.8635C50.8965 30.3134 51.5032 27.7633 51.4249 25.3677" stroke="#00D1FF" stroke-width="1.2" stroke-linecap="round" stroke-linejoin="round"/>
<path d="M75.3014 73.028C77.8064 69.7244 80.0571 65.764 80.9965 61.9001C81.4662 62.0354 89.4315 61.7842 89.4315 53.3417C89.4315 44.8993 81.1922 44.7061 80.5855 44.9186C78.922 39.2967 75.7906 34.409 71.7004 30.8156C67.1012 26.7779 61.2887 24.3823 54.9869 24.3823C48.6851 24.3823 42.853 26.7972 38.2539 30.8349C34.1636 34.4283 31.0323 39.316 29.3883 44.9186C28.762 44.6868 20.5032 45.2084 20.5032 53.3224C20.5032 61.4365 28.4881 61.9967 28.9773 61.8615C29.8189 65.3389 31.2084 68.5652 33.048 71.4052C42.1289 85.5081 65.2616 86.2616 75.3014 72.9893V73.028Z" stroke="#00D1FF" stroke-width="1.2" stroke-linecap="round" stroke-linejoin="round"/>
<path d="M45.5147 56.9159C46.9955 56.9159 48.1959 55.7309 48.1959 54.2692C48.1959 52.8074 46.9955 51.6224 45.5147 51.6224C44.0339 51.6224 42.8335 52.8074 42.8335 54.2692C42.8335 55.7309 44.0339 56.9159 45.5147 56.9159Z" fill="#00D1FF"/>
<path d="M64.4004 56.9159C65.8812 56.9159 67.0816 55.7309 67.0816 54.2692C67.0816 52.8074 65.8812 51.6224 64.4004 51.6224C62.9197 51.6224 61.7192 52.8074 61.7192 54.2692C61.7192 55.7309 62.9197 56.9159 64.4004 56.9159Z" fill="#00D1FF"/>
</g>
<line x1="17.3392" y1="90.9959" x2="91.7149" y2="16.6201" stroke="#00D1FF" stroke-width="1.2"/>
<defs>
<clipPath id="clip0_1115_17840">
<rect width="71.2768" height="60.4303" fill="white" transform="translate(19.3093 23.2426)"/>
</clipPath>
</defs>
</svg>
