<svg width="109" height="109" viewBox="0 0 109 109" fill="none" xmlns="http://www.w3.org/2000/svg">
<circle cx="54.7675" cy="54.2323" r="53.6324" stroke="#00D1FF" stroke-width="1.2"/>
<path d="M54.9488 76.2393C66.8327 76.2393 76.4665 66.7807 76.4665 55.1129C76.4665 43.4451 66.8327 33.9865 54.9488 33.9865C43.0649 33.9865 33.4312 43.4451 33.4312 55.1129C33.4312 66.7807 43.0649 76.2393 54.9488 76.2393Z" stroke="#00D1FF" stroke-width="1.2" stroke-linecap="round" stroke-linejoin="round"/>
<path d="M51.8611 20.004H58.1081" stroke="#00D1FF" stroke-width="1.2" stroke-linecap="round" stroke-linejoin="round"/>
<path d="M55.0684 33.775V20.333" stroke="#00D1FF" stroke-width="1.2" stroke-linecap="round" stroke-linejoin="round"/>
<path d="M58.1081 90.0103H51.8611" stroke="#00D1FF" stroke-width="1.2" stroke-linecap="round" stroke-linejoin="round"/>
<path d="M54.9009 76.2394V89.6813" stroke="#00D1FF" stroke-width="1.2" stroke-linecap="round" stroke-linejoin="round"/>
<path d="M90.636 51.9404V58.0739" stroke="#00D1FF" stroke-width="1.2" stroke-linecap="round" stroke-linejoin="round"/>
<path d="M76.6101 55.0894H90.301" stroke="#00D1FF" stroke-width="1.2" stroke-linecap="round" stroke-linejoin="round"/>
<path d="M19.3333 58.0739V51.9404" stroke="#00D1FF" stroke-width="1.2" stroke-linecap="round" stroke-linejoin="round"/>
<path d="M33.3593 54.9249H19.6685" stroke="#00D1FF" stroke-width="1.2" stroke-linecap="round" stroke-linejoin="round"/>
<path d="M70.0518 23.1295L75.4611 26.1845" stroke="#00D1FF" stroke-width="1.2" stroke-linecap="round" stroke-linejoin="round"/>
<path d="M65.8394 36.6419L72.6609 24.986" stroke="#00D1FF" stroke-width="1.2" stroke-linecap="round" stroke-linejoin="round"/>
<path d="M39.9176 86.8848L34.5083 83.8063" stroke="#00D1FF" stroke-width="1.2" stroke-linecap="round" stroke-linejoin="round"/>
<path d="M44.1301 73.3723L37.3086 85.0048" stroke="#00D1FF" stroke-width="1.2" stroke-linecap="round" stroke-linejoin="round"/>
<path d="M87.4526 69.8003L84.3171 75.1113" stroke="#00D1FF" stroke-width="1.2" stroke-linecap="round" stroke-linejoin="round"/>
<path d="M73.6899 65.6643L85.5378 72.3618" stroke="#00D1FF" stroke-width="1.2" stroke-linecap="round" stroke-linejoin="round"/>
<path d="M22.5166 40.2139L25.6282 34.903" stroke="#00D1FF" stroke-width="1.2" stroke-linecap="round" stroke-linejoin="round"/>
<path d="M36.2793 44.3499L24.4075 37.6525" stroke="#00D1FF" stroke-width="1.2" stroke-linecap="round" stroke-linejoin="round"/>
<path d="M84.2932 34.8324L87.4048 40.1434" stroke="#00D1FF" stroke-width="1.2" stroke-linecap="round" stroke-linejoin="round"/>
<path d="M73.7378 44.4439L85.5857 37.7229" stroke="#00D1FF" stroke-width="1.2" stroke-linecap="round" stroke-linejoin="round"/>
<path d="M25.676 75.1818L22.5645 69.8708" stroke="#00D1FF" stroke-width="1.2" stroke-linecap="round" stroke-linejoin="round"/>
<path d="M36.2075 65.5703L24.3596 72.2913" stroke="#00D1FF" stroke-width="1.2" stroke-linecap="round" stroke-linejoin="round"/>
<path d="M75.5329 83.7828L70.1235 86.8378" stroke="#00D1FF" stroke-width="1.2" stroke-linecap="round" stroke-linejoin="round"/>
<path d="M65.7434 73.4193L72.5889 85.0518" stroke="#00D1FF" stroke-width="1.2" stroke-linecap="round" stroke-linejoin="round"/>
<path d="M34.4363 26.2315L39.8456 23.1765" stroke="#00D1FF" stroke-width="1.2" stroke-linecap="round" stroke-linejoin="round"/>
<path d="M44.2258 36.5714L37.3804 24.939" stroke="#00D1FF" stroke-width="1.2" stroke-linecap="round" stroke-linejoin="round"/>
<path d="M53.8957 58.8024L53.3691 45.4075H56.2414L55.6908 58.8024H53.8718H53.8957ZM53.4649 64.4659V61.7634H56.1935V64.4659H53.4649Z" fill="#00D1FF"/>
</svg>
