<svg width="32" height="32" viewBox="0 0 32 32" fill="none" xmlns="http://www.w3.org/2000/svg">
<path d="M22.25 4.25C19.625 4.25 17.3425 5.43375 16 7.4175C14.6575 5.43375 12.375 4.25 9.75 4.25C7.76159 4.25232 5.85528 5.04324 4.44926 6.44926C3.04324 7.85528 2.25232 9.76159 2.25 11.75C2.25 15.4 4.525 19.1987 9.0125 23.0387C11.0688 24.791 13.29 26.3399 15.645 27.6637C15.7541 27.7224 15.8761 27.7531 16 27.7531C16.1239 27.7531 16.2459 27.7224 16.355 27.6637C18.71 26.3399 20.9312 24.791 22.9875 23.0387C27.475 19.1987 29.75 15.4 29.75 11.75C29.7477 9.76159 28.9568 7.85528 27.5507 6.44926C26.1447 5.04324 24.2384 4.25232 22.25 4.25ZM16 26.1388C13.9487 24.955 3.75 18.715 3.75 11.75C3.75165 10.1592 4.38433 8.63405 5.50919 7.50919C6.63405 6.38433 8.15921 5.75165 9.75 5.75C12.285 5.75 14.4137 7.10375 15.3062 9.28375C15.3628 9.42131 15.4589 9.53896 15.5824 9.62176C15.7059 9.70457 15.8513 9.74877 16 9.74877C16.1487 9.74877 16.2941 9.70457 16.4176 9.62176C16.5411 9.53896 16.6372 9.42131 16.6938 9.28375C17.5863 7.10375 19.715 5.75 22.25 5.75C23.8408 5.75165 25.366 6.38433 26.4908 7.50919C27.6157 8.63405 28.2483 10.1592 28.25 11.75C28.25 18.715 18.0513 24.955 16 26.1388Z" fill="#00D1FF"/>
<path d="M4.5 8.06738C3.7 9.26312 3.16667 11.555 3 12.5514L3.5 15.0426L6.5 20.0248L10.5 23.5124L15.5 27L18.5 26.0035L22 23.0142L26.5 19.0284L28.5 14.5444L29 11.555L28 9.06389L25.5 6.07454L22 5.07803L18.5 6.07454L16 9.06389L14.5 6.57277C13.3333 6.2406 10.7 5.47661 9.5 5.07803C8 4.5798 5.5 6.57271 4.5 8.06738Z" fill="#00D1FF"/>
</svg>
