<svg width="41" height="35" viewBox="0 0 41 35" fill="none" xmlns="http://www.w3.org/2000/svg">
<path d="M29.4078 0.190186C25.5844 0.190186 22.2599 1.91434 20.3045 4.80372C18.3491 1.91434 15.0246 0.190186 11.2013 0.190186C8.30509 0.193559 5.52851 1.34555 3.48061 3.39345C1.43271 5.44135 0.280717 8.21793 0.277344 11.1141C0.277344 16.4304 3.59093 21.9634 10.1271 27.5564C13.1221 30.1085 16.3574 32.3645 19.7875 34.2928C19.9464 34.3782 20.1241 34.4229 20.3045 34.4229C20.485 34.4229 20.6626 34.3782 20.8216 34.2928C24.2517 32.3645 27.4869 30.1085 30.482 27.5564C37.0181 21.9634 40.3317 16.4304 40.3317 11.1141C40.3283 8.21793 39.1763 5.44135 37.1284 3.39345C35.0805 1.34555 32.3039 0.193559 29.4078 0.190186ZM20.3045 32.0716C17.3168 30.3475 2.46213 21.2588 2.46213 11.1141C2.46454 8.79708 3.38604 6.57565 5.02442 4.93726C6.6628 3.29888 8.88424 2.37738 11.2013 2.37497C14.8935 2.37497 17.9941 4.34673 19.2941 7.52195C19.3764 7.72231 19.5164 7.89368 19.6963 8.01428C19.8762 8.13488 20.0879 8.19927 20.3045 8.19927C20.5211 8.19927 20.7328 8.13488 20.9128 8.01428C21.0927 7.89368 21.2327 7.72231 21.315 7.52195C22.6149 4.34673 25.7155 2.37497 29.4078 2.37497C31.7248 2.37738 33.9462 3.29888 35.5846 4.93726C37.223 6.57565 38.1445 8.79708 38.1469 11.1141C38.1469 21.2588 23.2922 30.3475 20.3045 32.0716Z" fill="#00D1FF"/>
</svg>
