<svg width="35" height="37" viewBox="0 0 35 37" fill="none" xmlns="http://www.w3.org/2000/svg">
<path d="M33.594 15.1586L19.0287 1.41454L19.0124 1.39997C18.5444 0.971375 17.9328 0.733643 17.2982 0.733643C16.6636 0.733643 16.0521 0.971375 15.5841 1.39997L15.5677 1.41454L1.00247 15.1605C0.744844 15.4003 0.539692 15.6909 0.399939 16.014C0.260185 16.3371 0.18886 16.6856 0.190456 17.0376V33.8695C0.190456 34.5455 0.459001 35.1938 0.937015 35.6718C1.41503 36.1499 2.06336 36.4184 2.73937 36.4184H31.8698C32.5458 36.4184 33.1941 36.1499 33.6722 35.6718C34.1502 35.1938 34.4187 34.5455 34.4187 33.8695V17.0376C34.4183 16.6844 34.3448 16.3352 34.2028 16.0118C34.0609 15.6885 33.8536 15.398 33.594 15.1586ZM32.2339 33.8695C32.2339 33.9661 32.1956 34.0587 32.1273 34.127C32.059 34.1952 31.9664 34.2336 31.8698 34.2336H2.73937C2.6428 34.2336 2.55018 34.1952 2.48189 34.127C2.4136 34.0587 2.37524 33.9661 2.37524 33.8695V17.0376C2.37513 16.9869 2.3856 16.9367 2.40597 16.8903C2.42635 16.8439 2.45619 16.8023 2.49358 16.7681L2.50997 16.7535L17.0643 3.01125C17.1306 2.95337 17.2156 2.92148 17.3037 2.92148C17.3917 2.92148 17.4768 2.95337 17.5431 3.01125L32.0992 16.7554L32.1138 16.7699C32.1515 16.804 32.1817 16.8455 32.2024 16.8919C32.2231 16.9383 32.2338 16.9886 32.2339 17.0394V33.8695Z" fill="#00D1FF"/>
</svg>
