<svg width="21" height="21" viewBox="0 0 21 21" fill="none" xmlns="http://www.w3.org/2000/svg">
<path d="M15.75 6.23444H12.477C12.2973 6.22542 8.00217 5.95718 3.91455 2.52909C3.77114 2.40858 3.59632 2.33149 3.41062 2.30688C3.22493 2.28226 3.03606 2.31114 2.86621 2.39013C2.69635 2.46911 2.55256 2.59492 2.45171 2.75278C2.35087 2.91064 2.29716 3.094 2.29689 3.28132V16.4063C2.29571 16.5938 2.34864 16.7776 2.44933 16.9358C2.55001 17.094 2.69418 17.2197 2.86455 17.298C2.99516 17.3586 3.13731 17.3902 3.28127 17.3907C3.51236 17.3902 3.73582 17.308 3.91209 17.1585C7.39514 14.2366 11.0291 13.6107 12.1382 13.4835V16.4605C12.1379 16.6227 12.1778 16.7825 12.2542 16.9256C12.3307 17.0687 12.4413 17.1907 12.5762 17.2808L13.4786 17.8821C13.6094 17.9693 13.7592 18.0239 13.9154 18.0413C14.0717 18.0588 14.2298 18.0385 14.3767 17.9823C14.5235 17.9261 14.6547 17.8355 14.7594 17.7182C14.864 17.6008 14.939 17.4601 14.9781 17.3078L16.0027 13.445C16.9376 13.3819 17.8113 12.9577 18.4392 12.2621C19.067 11.5664 19.3996 10.6539 19.3668 9.71741C19.334 8.78094 18.9383 7.89393 18.2633 7.24394C17.5884 6.59396 16.6871 6.23194 15.75 6.23444ZM12.1406 12.8216C11.0308 12.9323 7.21877 13.5287 3.49291 16.6565C3.44515 16.6968 3.38688 16.7227 3.32494 16.731C3.263 16.7393 3.19998 16.7297 3.14328 16.7035C3.08658 16.6772 3.03856 16.6353 3.00488 16.5826C2.9712 16.53 2.95325 16.4688 2.95314 16.4063V3.28132C2.95316 3.21902 2.97091 3.158 3.00432 3.10542C3.03773 3.05283 3.08542 3.01084 3.14182 2.98437C3.18697 2.96406 3.23587 2.95344 3.28537 2.95319C3.36218 2.95459 3.4359 2.98373 3.49291 3.03523C7.21877 6.1598 11.0308 6.75616 12.1406 6.8669V12.8216ZM14.3448 17.1446C14.3321 17.1956 14.3073 17.2429 14.2725 17.2823C14.2377 17.3217 14.1939 17.3522 14.1448 17.3712C14.0958 17.3902 14.0429 17.3971 13.9906 17.3913C13.9383 17.3856 13.8882 17.3674 13.8444 17.3382L12.9421 16.7369C12.8971 16.7069 12.8603 16.6663 12.8348 16.6186C12.8093 16.571 12.796 16.5178 12.7961 16.4637V13.4532H15.3226L14.3448 17.1446ZM15.75 12.7969H12.7969V6.89069H15.75C16.5332 6.89069 17.2844 7.20183 17.8382 7.75564C18.392 8.30946 18.7031 9.0606 18.7031 9.84382C18.7031 10.627 18.392 11.3782 17.8382 11.932C17.2844 12.4858 16.5332 12.7969 15.75 12.7969Z" fill="white"/>
</svg>
