<svg width="21" height="21" viewBox="0 0 21 21" fill="none" xmlns="http://www.w3.org/2000/svg">
<path d="M7.54688 7.875C7.54688 7.78798 7.58144 7.70452 7.64298 7.64298C7.70452 7.58144 7.78798 7.54688 7.875 7.54688H13.125C13.212 7.54688 13.2955 7.58144 13.357 7.64298C13.4186 7.70452 13.4531 7.78798 13.4531 7.875C13.4531 7.96202 13.4186 8.04548 13.357 8.10702C13.2955 8.16856 13.212 8.20312 13.125 8.20312H7.875C7.78798 8.20312 7.70452 8.16856 7.64298 8.10702C7.58144 8.04548 7.54688 7.96202 7.54688 7.875ZM7.875 10.8281H13.125C13.212 10.8281 13.2955 10.7936 13.357 10.732C13.4186 10.6705 13.4531 10.587 13.4531 10.5C13.4531 10.413 13.4186 10.3295 13.357 10.268C13.2955 10.2064 13.212 10.1719 13.125 10.1719H7.875C7.78798 10.1719 7.70452 10.2064 7.64298 10.268C7.58144 10.3295 7.54688 10.413 7.54688 10.5C7.54688 10.587 7.58144 10.6705 7.64298 10.732C7.70452 10.7936 7.78798 10.8281 7.875 10.8281ZM10.5 12.7969H7.875C7.78798 12.7969 7.70452 12.8314 7.64298 12.893C7.58144 12.9545 7.54688 13.038 7.54688 13.125C7.54688 13.212 7.58144 13.2955 7.64298 13.357C7.70452 13.4186 7.78798 13.4531 7.875 13.4531H10.5C10.587 13.4531 10.6705 13.4186 10.732 13.357C10.7936 13.2955 10.8281 13.212 10.8281 13.125C10.8281 13.038 10.7936 12.9545 10.732 12.893C10.6705 12.8314 10.587 12.7969 10.5 12.7969ZM18.0469 3.9375V12.8535C18.0472 12.9828 18.0219 13.1108 17.9723 13.2303C17.9227 13.3497 17.8499 13.4581 17.7581 13.5491L13.5491 17.7589C13.4579 17.8505 13.3495 17.9231 13.2301 17.9725C13.1107 18.0219 12.9827 18.0472 12.8535 18.0469H3.9375C3.67643 18.0469 3.42605 17.9432 3.24144 17.7586C3.05684 17.574 2.95312 17.3236 2.95312 17.0625V3.9375C2.95312 3.67643 3.05684 3.42605 3.24144 3.24144C3.42605 3.05684 3.67643 2.95313 3.9375 2.95312H17.0625C17.3236 2.95312 17.574 3.05684 17.7586 3.24144C17.9432 3.42605 18.0469 3.67643 18.0469 3.9375ZM3.9375 17.3906H12.7969V13.125C12.7969 13.038 12.8314 12.9545 12.893 12.893C12.9545 12.8314 13.038 12.7969 13.125 12.7969H17.3906V3.9375C17.3906 3.85048 17.3561 3.76702 17.2945 3.70548C17.233 3.64395 17.1495 3.60938 17.0625 3.60938H3.9375C3.85048 3.60938 3.76702 3.64395 3.70548 3.70548C3.64395 3.76702 3.60938 3.85048 3.60938 3.9375V17.0625C3.60938 17.1495 3.64395 17.233 3.70548 17.2945C3.76702 17.3561 3.85048 17.3906 3.9375 17.3906ZM16.9271 13.4531H13.4531V16.9271L16.9271 13.4531Z" fill="white"/>
</svg>
