<svg width="29" height="30" viewBox="0 0 29 30" fill="none" xmlns="http://www.w3.org/2000/svg">
  <path fill-rule="evenodd" clip-rule="evenodd"
        d="M23.1811 12.9864C23.1811 18.9735 18.3276 23.8269 12.3405 23.8269C6.35347 23.8269 1.5 18.9735 1.5 12.9864C1.5 6.99934 6.35347 2.14587 12.3405 2.14587C18.3276 2.14587 23.1811 6.99934 23.1811 12.9864ZM20.2101 22.4925C18.0741 24.2628 15.3316 25.3269 12.3405 25.3269C5.52504 25.3269 0 19.8019 0 12.9864C0 6.17092 5.52504 0.645874 12.3405 0.645874C19.156 0.645874 24.6811 6.17092 24.6811 12.9864C24.6811 16.2737 23.3957 19.2608 21.3002 21.4725C21.3123 21.4831 21.3241 21.4942 21.3357 21.5058L28.502 28.6721C28.7949 28.965 28.7949 29.4399 28.502 29.7328C28.2091 30.0257 27.7343 30.0257 27.4414 29.7328L20.275 22.5664C20.2515 22.5429 20.2299 22.5182 20.2101 22.4925Z"
        fill="currentColor"/>
</svg>
