<svg width="24" height="24" viewBox="0 0 24 24" fill="none" xmlns="http://www.w3.org/2000/svg">
<path fill-rule="evenodd" clip-rule="evenodd" d="M18.5 10C18.5 14.6944 14.6944 18.5 10 18.5C5.30558 18.5 1.5 14.6944 1.5 10C1.5 5.30558 5.30558 1.5 10 1.5C14.6944 1.5 18.5 5.30558 18.5 10ZM16.3983 17.6855C14.6643 19.1306 12.4337 20 10 20C4.47715 20 0 15.5228 0 10C0 4.47715 4.47715 0 10 0C15.5228 0 20 4.47715 20 10C20 12.5699 19.0306 14.9134 17.4375 16.6847C17.4924 16.7166 17.544 16.756 17.591 16.803L23.197 22.409C23.4899 22.7019 23.4899 23.1768 23.197 23.4697C22.9041 23.7626 22.4292 23.7626 22.1363 23.4697L16.5303 17.8637C16.4764 17.8097 16.4323 17.7496 16.3983 17.6855Z" fill="url(#paint0_linear_1032_10633)"/>
<defs>
<linearGradient id="paint0_linear_1032_10633" x1="0.505396" y1="0.995648" x2="26.3819" y2="27.7709" gradientUnits="userSpaceOnUse">
<stop stop-color="#00D1FF"/>
<stop offset="1" stop-color="#00F0FF"/>
</linearGradient>
</defs>
</svg>
