<svg width="22" height="22" viewBox="0 0 22 22" fill="none" xmlns="http://www.w3.org/2000/svg">
<path d="M20.2279 8.46747C20.167 8.27381 20.0495 8.10284 19.8905 7.97662C19.7315 7.85041 19.5383 7.77472 19.3359 7.75934L14.2269 7.31762C14.1648 7.31185 14.1054 7.28928 14.0552 7.25234C14.0049 7.2154 13.9657 7.16548 13.9416 7.10794L11.9453 2.35129C11.8673 2.16418 11.7356 2.00434 11.567 1.89191C11.3983 1.77948 11.2001 1.71948 10.9974 1.71948C10.7947 1.71948 10.5965 1.77948 10.4278 1.89191C10.2591 2.00434 10.1275 2.16418 10.0495 2.35129L8.05574 7.10794C8.03168 7.16548 7.99242 7.2154 7.94216 7.25234C7.8919 7.28928 7.83253 7.31185 7.77043 7.31762L2.66402 7.75934C2.46119 7.77597 2.26782 7.85224 2.10825 7.97855C1.94868 8.10486 1.83005 8.27555 1.76729 8.46915C1.70454 8.66274 1.70047 8.87057 1.75559 9.06647C1.81071 9.26237 1.92257 9.43758 2.07707 9.57005L5.95285 12.9517C6.00125 12.9932 6.03717 13.0473 6.05659 13.108C6.07602 13.1687 6.07818 13.2336 6.06285 13.2954L4.8984 18.3236C4.85041 18.522 4.863 18.7303 4.93453 18.9215C5.00607 19.1126 5.13328 19.278 5.29972 19.3961C5.46242 19.5163 5.65741 19.5848 5.85949 19.593C6.06157 19.6011 6.26143 19.5484 6.43324 19.4417L10.8246 16.7776C10.8774 16.7452 10.9381 16.728 11 16.728C11.0619 16.728 11.1226 16.7452 11.1753 16.7776L15.5667 19.4417C15.7403 19.5457 15.9407 19.5964 16.1428 19.5874C16.345 19.5784 16.5401 19.51 16.7037 19.3909C16.8674 19.2718 16.9924 19.1072 17.0631 18.9176C17.1338 18.7279 17.1472 18.5217 17.1015 18.3245L15.9396 13.2937C15.9243 13.2319 15.9265 13.1669 15.9459 13.1062C15.9653 13.0455 16.0012 12.9914 16.0496 12.95L19.9254 9.56833C20.0797 9.43577 20.1909 9.2602 20.2448 9.06408C20.2987 8.86797 20.2928 8.66023 20.2279 8.46747ZM19.4734 9.05184L15.5976 12.4335C15.4557 12.5566 15.3502 12.7161 15.2923 12.8948C15.2344 13.0735 15.2265 13.2646 15.2693 13.4475L16.4312 18.4766C16.4474 18.5433 16.4433 18.6133 16.4195 18.6776C16.3956 18.7419 16.353 18.7976 16.2971 18.8375C16.2435 18.8773 16.1792 18.9 16.1125 18.9026C16.0458 18.9052 15.9799 18.8876 15.9233 18.8522L11.5319 16.1881C11.3717 16.0903 11.1877 16.0386 11 16.0386C10.8123 16.0386 10.6282 16.0903 10.468 16.1881L6.0766 18.8522C6.02005 18.8876 5.95412 18.9052 5.88743 18.9026C5.82074 18.9 5.75638 18.8773 5.70277 18.8375C5.64695 18.7976 5.60435 18.7419 5.58046 18.6776C5.55657 18.6133 5.55248 18.5433 5.56871 18.4766L6.73058 13.4458C6.77341 13.2629 6.76547 13.0718 6.70761 12.8931C6.64976 12.7144 6.54419 12.5549 6.4023 12.4318L2.52652 9.05184C2.47434 9.00707 2.43679 8.94768 2.41871 8.88135C2.40064 8.81501 2.40287 8.74479 2.42511 8.67973C2.44586 8.61573 2.48492 8.55923 2.53747 8.51722C2.59002 8.47521 2.65374 8.44955 2.72074 8.4434L7.82972 8.00169C8.01656 7.98503 8.19531 7.91773 8.34673 7.80704C8.49816 7.69635 8.61653 7.54645 8.6891 7.37348L10.6846 2.61598C10.7115 2.55498 10.7555 2.50312 10.8114 2.46671C10.8672 2.4303 10.9324 2.41092 10.9991 2.41092C11.0658 2.41092 11.131 2.4303 11.1868 2.46671C11.2427 2.50312 11.2867 2.55498 11.3136 2.61598L13.3091 7.37348C13.3817 7.54645 13.5 7.69635 13.6515 7.80704C13.8029 7.91773 13.9816 7.98503 14.1685 8.00169L19.2775 8.4434C19.3445 8.44955 19.4082 8.47521 19.4607 8.51722C19.5133 8.55923 19.5523 8.61573 19.5731 8.67973C19.5955 8.74462 19.598 8.81474 19.5803 8.88106C19.5625 8.94738 19.5253 9.00687 19.4734 9.05184Z" fill="white"/>
</svg>
