<svg width="20" height="20" viewBox="0 0 20 20" fill="none" xmlns="http://www.w3.org/2000/svg">
<path d="M19.5227 5.97422C19.4727 5.94749 19.4165 5.93482 19.3599 5.93758C19.3034 5.94033 19.2486 5.95839 19.2016 5.98984L15.9375 8.16641V5.625C15.9375 5.37636 15.8387 5.1379 15.6629 4.96209C15.4871 4.78627 15.2486 4.6875 15 4.6875H2.5C2.25136 4.6875 2.0129 4.78627 1.83709 4.96209C1.66127 5.1379 1.5625 5.37636 1.5625 5.625V14.375C1.5625 14.6236 1.66127 14.8621 1.83709 15.0379C2.0129 15.2137 2.25136 15.3125 2.5 15.3125H15C15.2486 15.3125 15.4871 15.2137 15.6629 15.0379C15.8387 14.8621 15.9375 14.6236 15.9375 14.375V11.8336L19.2016 14.0102C19.2486 14.0416 19.3034 14.0596 19.3599 14.0623C19.4164 14.0651 19.4726 14.0524 19.5225 14.0257C19.5724 13.999 19.6141 13.9592 19.6431 13.9107C19.6722 13.8621 19.6875 13.8066 19.6875 13.75V6.25C19.6876 6.19341 19.6723 6.13787 19.6432 6.0893C19.6142 6.04073 19.5725 6.00096 19.5227 5.97422ZM15.3125 14.375C15.3125 14.4579 15.2796 14.5374 15.221 14.596C15.1624 14.6546 15.0829 14.6875 15 14.6875H2.5C2.41712 14.6875 2.33763 14.6546 2.27903 14.596C2.22042 14.5374 2.1875 14.4579 2.1875 14.375V5.625C2.1875 5.54212 2.22042 5.46263 2.27903 5.40403C2.33763 5.34542 2.41712 5.3125 2.5 5.3125H15C15.0829 5.3125 15.1624 5.34542 15.221 5.40403C15.2796 5.46263 15.3125 5.54212 15.3125 5.625V14.375ZM19.0625 13.1664L15.9375 11.0828V8.91719L19.0625 6.83359V13.1664Z" fill="white"/>
</svg>
